<?xml version="1.0" encoding="utf-8"?>
<!-- Generator: $$$/GeneralStr/196=Adobe Illustrator 27.6.0, SVG Export Plug-In . SVG Version: 6.00 Build 0)  -->
<svg version="1.1" id="Ebene_1" xmlns="http://www.w3.org/2000/svg" xmlns:xlink="http://www.w3.org/1999/xlink" x="0px" y="0px"
	 viewBox="0 0 763.2 896.3" style="enable-background:new 0 0 763.2 896.3;" xml:space="preserve">
<style type="text/css">
	.st0{fill:#FFD500;}
	.st1{fill:#3C3C3B;}
</style>
<polygon class="st0" points="545.3,530.4 490.8,584.9 436.2,530.4 436.2,460.1 327.1,460.1 272.5,405.6 217.9,460.1 217.9,351 
	545.3,351 "/>
<polygon class="st1" points="217.9,498.8 272.5,444.2 327.1,498.8 327.1,569.3 436.2,569.3 490.8,623.8 545.3,569.3 545.3,678.4 
	217.9,678.4 "/>
<g>
	<path class="st1" d="M217.9,204.2h53.4c27.9,0,45.9,21.1,45.9,53.8c0,32-17.6,51.9-45.5,51.9h-53.8V204.2z M244,226.1v61.7h19.7
		c17.6,0,26.4-10.1,26.4-30.4c0-20.1-8.5-31.4-23.8-31.4H244z"/>
	<path class="st1" d="M332.9,204.2h99.3v21.9h-36.7V310h-26v-83.9h-36.6V204.2z"/>
	<path class="st1" d="M465.5,273.9c3.5,7.8,9.2,20.4,33.6,20.4c15.4,0,23.8-4.3,23.8-12c0-7.5-7.3-11.4-25.2-13.6
		c-22.6-2.8-44.1-11.7-44.1-32.9c0-13.6,7.3-24.6,19.9-29.9c6.7-2.8,15.4-4.1,26.1-4.1c30.5,0,42.2,14.7,45.6,21.4L529,236.8
		c-6.5-11.3-15-16.3-29-16.3c-13.6,0-21.6,4.3-21.6,11.3c0,6.5,5.6,9.4,23,12c27.7,4.3,46.3,12.2,46.3,34.3c0,9.2-2.9,17-8.7,22.9
		c-8.4,8.7-20.1,12.3-39.7,12.3c-31.8,0-42.4-9.8-50.9-24.2L465.5,273.9z"/>
</g>
</svg>
